Patient4_TMGait_0pt7_02_right_39_GRF.mot
version=1
nRows=32
nColumns=19
inDegrees=no
endheader
time	F1x	F1y	F1z	M1x	M1y	M1z	F2x	F2y	F2z	M2x	M2y	M2z	EC1x	EC1y	EC1z	EC2x	EC2y	EC2z
44.07	32.8414	807.8043	72.2407	-271.4495	-59.4458	827.5878	0.18167	8.7735	14.7074	-1.1443	-8.7146	3.4325	-0.0592	0.0182	-0.0073	-0.0462	0.0165	0.9585
44.0817	28.748	814.548	70.0931	-275.7336	-58.2117	823.1811	-0.37018	7.3535	9.6435	-0.18624	-5.5344	4.243	-0.0592	0.0182	-0.0073	-0.0462	0.0165	0.9585
44.0934	25.2961	822.1009	68.5373	-279.9816	-57.2579	820.2715	-0.67226	6.118	5.4669	0.59452	-2.9512	4.788	-0.0592	0.0182	-0.0073	-0.0462	0.0165	0.9585
44.1051	22.6546	828.9291	67.4838	-283.5768	-56.4678	817.8664	-0.76802	5.1748	2.3489	1.1798	-1.0525	5.1133	-0.0592	0.0182	-0.0073	-0.0462	0.0165	0.9585
44.1169	20.7596	833.4771	66.785	-285.9851	-55.7436	814.6051	-0.76646	4.5503	0.2396	1.5882	0.2179	5.3137	-0.0592	0.0182	-0.0073	-0.0462	0.0165	0.9585
44.1286	19.6009	834.4406	66.2071	-286.8239	-54.8859	809.0793	-0.68142	4.164	-1.0384	1.8403	0.97413	5.3721	-0.0592	0.0182	-0.0073	-0.0462	0.0165	0.9585
44.1403	19.1333	831.0002	65.5655	-285.8896	-53.7514	800.281	-0.59603	3.9612	-1.6795	1.9697	1.3469	5.3567	-0.0592	0.0182	-0.0073	-0.0462	0.0165	0.9585
44.152	19.3167	822.8509	64.8307	-283.1586	-52.3321	787.6361	-0.49564	3.7745	-1.8961	1.9785	1.4613	5.1492	-0.0592	0.0182	-0.0073	-0.0462	0.0165	0.9585
44.1637	20.1177	810.23	63.9421	-278.7813	-50.5924	771.1612	-0.44187	3.4967	-1.8592	1.8706	1.4337	4.7395	-0.0592	0.0182	-0.0073	-0.0462	0.0165	0.9585
44.1754	21.452	793.8125	63.0319	-273.0394	-48.6826	751.3199	-0.39526	2.9303	-1.7087	1.6138	1.3445	3.9403	-0.0592	0.0182	-0.0073	-0.0462	0.0165	0.9585
44.1871	23.2193	774.6126	62.0898	-266.3149	-46.6275	728.9533	-0.40523	1.9568	-1.5211	1.1821	1.2476	2.6959	-0.0592	0.0182	-0.0073	-0.0462	0.0165	0.9585
44.1989	25.317	753.7939	61.2572	-259.0203	-44.5919	705.1007	-0.38646	0.40469	-1.3483	0.52894	1.1487	0.8099	-0.0592	0.0182	-0.0073	-0.0462	0.0165	0.9585
44.2106	27.671	732.6071	60.4881	-251.5897	-42.5601	680.867	-0.37218	-1.7767	-1.1933	-0.36346	1.0386	-1.7416	-0.0592	0.0182	-0.0073	-0.0462	0.0165	0.9585
44.2223	30.2174	712.2584	59.8602	-244.4329	-40.6193	657.3501	-0.25914	-4.6171	-1.0611	-1.4953	0.8876	-5.0219	-0.0592	0.0182	-0.0073	-0.0462	0.0165	0.9585
44.234	33.0316	693.9332	59.3096	-237.9501	-38.6843	635.6025	-0.068166	-7.8702	-0.92463	-2.776	0.66963	-8.7286	-0.0592	0.0182	-0.0073	-0.0462	0.0165	0.9585
44.2457	36.1674	678.6684	58.9008	-232.48	-36.7832	616.5379	0.31107	-11.091	-0.76392	-4.0249	0.3335	-12.408	-0.0592	0.0182	-0.0073	-0.0462	0.0165	0.9585
44.2574	39.7868	667.2606	58.6285	-228.2827	-34.85	600.8368	0.8529	-13.3342	-0.54061	-4.8836	-0.15355	-14.9694	-0.0592	0.0182	-0.0073	-0.0462	0.0165	0.9585
44.2691	43.9924	660.1161	58.5637	-225.4844	-32.8978	588.8491	1.6461	-13.2304	-0.2188	-4.8161	-0.84249	-14.9152	-0.0592	0.0182	-0.0073	-0.0462	0.0165	0.9585
44.2809	48.8808	657.162	58.7421	-224.0595	-30.9174	580.4667	2.5946	-8.7285	0.22525	-3.0379	-1.7183	-9.9056	-0.0592	0.0182	-0.0073	-0.0462	0.0165	0.9585
44.2926	54.4581	657.8499	59.1607	-223.8307	-28.8955	575.2035	3.6744	2.7193	0.80274	1.4388	-2.7526	2.9031	-0.0592	0.0182	-0.0073	-0.0462	0.0165	0.9585
44.3043	60.6705	661.2107	59.7651	-224.4878	-26.8135	572.2348	4.6044	24.1244	1.4757	9.7665	-3.7854	26.9598	-0.0592	0.0182	-0.0073	-0.0462	0.0165	0.9585
44.316	67.2948	665.8257	60.4004	-225.5816	-24.6151	570.4035	5.0964	58.3832	2.1492	23.0606	-4.5645	65.5327	-0.0592	0.0182	-0.0073	-0.0462	0.0165	0.9585
44.3277	74.0435	669.8869	60.8792	-226.5306	-22.2559	568.2729	4.5412	107.609	2.6421	42.1116	-4.6378	121.1161	-0.0592	0.0182	-0.0073	-0.0462	0.0165	0.9585
44.3394	80.4815	671.124	60.9276	-226.6012	-19.6665	564.0549	2.2522	171.7007	2.6742	66.8567	-3.3954	193.6727	-0.0592	0.0182	-0.0073	-0.0462	0.0165	0.9585
44.3511	86.1046	666.9348	60.2773	-224.9405	-16.8227	555.727	-2.8582	246.8832	1.8367	95.7874	0.035818	279.0795	-0.0592	0.0182	-0.0073	-0.0462	0.0165	0.9585
44.3629	90.3534	654.6744	58.6656	-220.6721	-13.7263	541.2657	-11.9173	324.2164	-0.38401	125.4023	6.6235	367.3153	-0.0592	0.0182	-0.0073	-0.0462	0.0165	0.9585
44.3746	92.6924	632.1248	55.9399	-213.0545	-10.474	518.9895	-24.2922	391.777	-5.1534	151.0741	17.2325	444.8829	-0.0592	0.0182	-0.0073	-0.0462	0.0165	0.9585
44.3863	92.7241	598.1127	52.1355	-201.6731	-7.267	488.0558	-37.8477	444.186	-12.5964	170.6888	31.101	505.4163	-0.0592	0.0182	-0.0073	-0.0462	0.0165	0.9585
44.398	90.2629	552.8989	47.4078	-186.5681	-4.2957	448.7925	-51.2051	484.1507	-21.2013	185.287	46.0709	551.7721	-0.0592	0.0182	-0.0073	-0.0462	0.0165	0.9585
44.4097	85.4594	497.7891	42.152	-168.1353	-1.8331	402.2675	-62.8169	516.9624	-30.2584	196.9576	60.7331	589.682	-0.0592	0.0182	-0.0073	-0.0462	0.0165	0.9585
44.4214	78.5489	435.1836	36.5499	-147.1493	0.085113	350.4388	-71.8023	547.175	-38.0733	207.555	72.9604	624.1969	-0.0592	0.0182	-0.0073	-0.0462	0.0165	0.9585
44.4331	69.9785	368.2309	30.8062	-124.6569	1.4497	295.7402	-77.6526	576.6801	-44.3427	217.8771	82.1901	657.3688	-0.0592	0.0182	-0.0073	-0.0462	0.0165	0.9585
